HIERARCHY
ROOT Hips
{
	OFFSET 0.000000 0.000000 0.000000
	CHANNELS 6 Xposition Yposition Zposition Xrotation Yrotation Zrotation
	JOINT Thigh.L
	{
		OFFSET 0.055779 0.027134 -0.095986
		CHANNELS 3 Xrotation Yrotation Zrotation
		JOINT Shin.L
		{
			OFFSET 0.059988 0.006797 -0.414329
			CHANNELS 3 Xrotation Yrotation Zrotation
			JOINT Foot.L
			{
				OFFSET -0.042440 0.032455 -0.440099
				CHANNELS 3 Xrotation Yrotation Zrotation
				JOINT Toe.L
				{
					OFFSET 0.048599 -0.127218 -0.064645
					CHANNELS 3 Xrotation Yrotation Zrotation
					End Site
					{
						OFFSET 0.000000 0.050000 0.000000
					}
				}
			}
		}
	}
	JOINT Thigh.R
	{
		OFFSET -0.060897 0.021427 -0.108696
		CHANNELS 3 Xrotation Yrotation Zrotation
		JOINT Shin.R
		{
			OFFSET -0.048979 0.014886 -0.395550
			CHANNELS 3 Xrotation Yrotation Zrotation
			JOINT Foot.R
			{
				OFFSET 0.014173 0.020483 -0.449207
				CHANNELS 3 Xrotation Yrotation Zrotation
				JOINT Toe.R
				{
					OFFSET -0.039900 -0.128039 -0.064473
					CHANNELS 3 Xrotation Yrotation Zrotation
					End Site
					{
						OFFSET 0.000000 0.050000 0.000000
					}
				}
			}
		}
	}
	JOINT Spine
	{
		OFFSET -0.002647 0.027755 0.115450
		CHANNELS 3 Xrotation Yrotation Zrotation
		JOINT Spine.2
		{
			OFFSET 0.009307 0.006589 0.143570
			CHANNELS 3 Xrotation Yrotation Zrotation
			JOINT Chest
			{
				OFFSET -0.011068 -0.023952 0.057105
				CHANNELS 3 Xrotation Yrotation Zrotation
				JOINT Neck
				{
					OFFSET -0.012378 0.026291 0.171901
					CHANNELS 3 Xrotation Yrotation Zrotation
					JOINT Head
					{
						OFFSET 0.025680 -0.021117 0.170199
						CHANNELS 3 Xrotation Yrotation Zrotation
						End Site
						{
							OFFSET 0.000000 0.050000 0.000000
						}
					}
				}
				JOINT Clavicle.L
				{
					OFFSET 0.047930 0.004632 0.088511
					CHANNELS 3 Xrotation Yrotation Zrotation
					JOINT UpperArm.L
					{
						OFFSET 0.128531 0.014185 0.059001
						CHANNELS 3 Xrotation Yrotation Zrotation
						JOINT ForeArm.L
						{
							OFFSET 0.270763 0.043646 -0.075895
							CHANNELS 3 Xrotation Yrotation Zrotation
							JOINT Hand.L
							{
								OFFSET 0.274560 0.000642 0.022798
								CHANNELS 3 Xrotation Yrotation Zrotation
								JOINT Thumb1.L
								{
									OFFSET 0.154588 0.000280 0.009930
									CHANNELS 3 Xrotation Yrotation Zrotation
									JOINT Thumb2.L
									{
										OFFSET 0.029897 0.000070 0.002482
										CHANNELS 3 Xrotation Yrotation Zrotation
										End Site
										{
											OFFSET 0.024914 0.000058 0.002069
										}
									}
								}
								JOINT Index1.L
								{
									OFFSET 0.137588 0.000280 0.009930
									CHANNELS 3 Xrotation Yrotation Zrotation
									JOINT Index2.L
									{
										OFFSET 0.029897 0.000070 0.002482
										CHANNELS 3 Xrotation Yrotation Zrotation
										JOINT Index3.L
										{
											OFFSET 0.021924 0.000051 0.001820
											CHANNELS 3 Xrotation Yrotation Zrotation
											End Site
											{
												OFFSET 0.017938 0.000042 0.001489
											}
										}
									}
								}
								JOINT Middle1.L
								{
									OFFSET 0.119588 0.000280 0.009930
									CHANNELS 3 Xrotation Yrotation Zrotation
									JOINT Middle2.L
									{
										OFFSET 0.030894 0.000072 0.002565
										CHANNELS 3 Xrotation Yrotation Zrotation
										JOINT Middle3.L
										{
											OFFSET 0.021924 0.000051 0.001820
											CHANNELS 3 Xrotation Yrotation Zrotation
											End Site
											{
												OFFSET 0.017938 0.000042 0.001489
											}
										}
									}
								}
								JOINT Ring1.L
								{
									OFFSET 0.101588 0.000280 0.009930
									CHANNELS 3 Xrotation Yrotation Zrotation
									JOINT Ring2.L
									{
										OFFSET 0.028900 0.000068 0.002400
										CHANNELS 3 Xrotation Yrotation Zrotation
										JOINT Ring3.L
										{
											OFFSET 0.019931 0.000047 0.001655
											CHANNELS 3 Xrotation Yrotation Zrotation
											End Site
											{
												OFFSET 0.016942 0.000040 0.001407
											}
										}
									}
								}
								JOINT Pinky1.L
								{
									OFFSET 0.085588 0.000280 0.009930
									CHANNELS 3 Xrotation Yrotation Zrotation
									JOINT Pinky2.L
									{
										OFFSET 0.023918 0.000056 0.001986
										CHANNELS 3 Xrotation Yrotation Zrotation
										JOINT Pinky3.L
										{
											OFFSET 0.016942 0.000040 0.001407
											CHANNELS 3 Xrotation Yrotation Zrotation
											End Site
											{
												OFFSET 0.013952 0.000033 0.001158
											}
										}
									}
								}
							}
						}
					}
				}
				JOINT Clavicle.R
				{
					OFFSET -0.048995 0.010856 0.087622
					CHANNELS 3 Xrotation Yrotation Zrotation
					JOINT UpperArm.R
					{
						OFFSET -0.111469 0.010693 0.055087
						CHANNELS 3 Xrotation Yrotation Zrotation
						JOINT ForeArm.R
						{
							OFFSET -0.289295 0.028041 -0.039698
							CHANNELS 3 Xrotation Yrotation Zrotation
							JOINT Hand.R
							{
								OFFSET -0.270826 0.014224 -0.005326
								CHANNELS 3 Xrotation Yrotation Zrotation
								JOINT Thumb1.R
								{
									OFFSET -0.154812 0.006293 -0.002356
									CHANNELS 3 Xrotation Yrotation Zrotation
									JOINT Thumb2.R
									{
										OFFSET -0.029953 0.001573 -0.000589
										CHANNELS 3 Xrotation Yrotation Zrotation
										End Site
										{
											OFFSET -0.024961 0.001311 -0.000491
										}
									}
								}
								JOINT Index1.R
								{
									OFFSET -0.137812 0.006293 -0.002356
									CHANNELS 3 Xrotation Yrotation Zrotation
									JOINT Index2.R
									{
										OFFSET -0.029953 0.001573 -0.000589
										CHANNELS 3 Xrotation Yrotation Zrotation
										JOINT Index3.R
										{
											OFFSET -0.021965 0.001154 -0.000432
											CHANNELS 3 Xrotation Yrotation Zrotation
											End Site
											{
												OFFSET -0.017972 0.000944 -0.000353
											}
										}
									}
								}
								JOINT Middle1.R
								{
									OFFSET -0.119812 0.006293 -0.002356
									CHANNELS 3 Xrotation Yrotation Zrotation
									JOINT Middle2.R
									{
										OFFSET -0.030951 0.001626 -0.000609
										CHANNELS 3 Xrotation Yrotation Zrotation
										JOINT Middle3.R
										{
											OFFSET -0.021965 0.001154 -0.000432
											CHANNELS 3 Xrotation Yrotation Zrotation
											End Site
											{
												OFFSET -0.017972 0.000944 -0.000353
											}
										}
									}
								}
								JOINT Ring1.R
								{
									OFFSET -0.101812 0.006293 -0.002356
									CHANNELS 3 Xrotation Yrotation Zrotation
									JOINT Ring2.R
									{
										OFFSET -0.028955 0.001521 -0.000569
										CHANNELS 3 Xrotation Yrotation Zrotation
										JOINT Ring3.R
										{
											OFFSET -0.019969 0.001049 -0.000393
											CHANNELS 3 Xrotation Yrotation Zrotation
											End Site
											{
												OFFSET -0.016973 0.000891 -0.000334
											}
										}
									}
								}
								JOINT Pinky1.R
								{
									OFFSET -0.085812 0.006293 -0.002356
									CHANNELS 3 Xrotation Yrotation Zrotation
									JOINT Pinky2.R
									{
										OFFSET -0.023962 0.001259 -0.000471
										CHANNELS 3 Xrotation Yrotation Zrotation
										JOINT Pinky3.R
										{
											OFFSET -0.016973 0.000891 -0.000334
											CHANNELS 3 Xrotation Yrotation Zrotation
											End Site
											{
												OFFSET -0.013978 0.000734 -0.000275
											}
										}
									}
								}
							}
						}
					}
				}
			}
		}
	}
}
MOTION
Frames: 8
Frame Time: 0.04166667
-0.000483 -0.039933 1.030020 -4.384313 0.474483 -0.784578 5.447114 -2.697669 2.360205 2.704369 1.830080 -10.274180 -10.403341 -2.735072 9.327611 -0.875266 -2.159230 -1.199712 1.185848 3.626239 -2.851078 8.826789 0.764518 5.584956 -10.808227 -1.828624 -6.007742 -0.437499 -1.523222 0.717611 3.148704 1.110110 2.456982 -0.294580 -0.282944 -1.349405 3.099898 0.791894 0.036171 5.424471 0.345229 2.528747 5.477686 -0.459200 -0.960528 -0.998276 20.512631 -1.237824 26.703138 43.741956 -26.927032 19.061923 -0.559516 -24.170494 -2.520448 0.494823 -10.527861 0.000000 0.000000 0.000000 0.000000 0.000000 0.000000 0.000000 0.000000 0.000000 0.000000 0.000000 0.000000 0.000000 0.000000 0.000000 0.000000 0.000000 0.000000 0.000000 0.000000 0.000000 0.000000 0.000000 0.000000 0.000000 0.000000 0.000000 0.000000 0.000000 0.000000 0.000000 0.000000 0.000000 0.000000 0.000000 0.000000 0.000000 0.000000 0.000000 0.000000 0.000000 0.000000 0.194400 -20.933436 6.494681 29.863264 -45.466373 28.943046 10.252072 0.412757 26.295767 -4.822645 -1.937613 7.034572 0.000000 0.000000 0.000000 0.000000 0.000000 0.000000 0.000000 0.000000 0.000000 0.000000 0.000000 0.000000 0.000000 0.000000 0.000000 0.000000 0.000000 0.000000 0.000000 0.000000 0.000000 0.000000 0.000000 0.000000 0.000000 0.000000 0.000000 0.000000 0.000000 0.000000 0.000000 0.000000 0.000000 0.000000 0.000000 0.000000 0.000000 0.000000 0.000000 0.000000 0.000000 0.000000
-0.000763 -0.039889 1.030019 -4.346517 0.489985 -0.839778 5.481813 -2.688242 2.380147 2.538798 1.823136 -10.272882 -10.339796 -2.727133 9.373581 -0.890538 -2.162364 -1.209058 1.161705 3.619395 -2.860412 8.751370 0.784685 5.640808 -10.771555 -1.875944 -5.982628 -0.418639 -1.546200 0.715849 3.154382 1.095327 2.449954 -0.336142 -0.236739 -1.319020 3.143203 0.772183 0.029757 5.478194 0.350482 2.537347 5.554343 -0.457481 -0.916723 -1.004416 20.507687 -1.213884 26.678959 43.732654 -26.927509 19.041023 -0.529999 -24.208593 -2.585357 0.553651 -10.526774 0.000000 0.000000 0.000000 0.000000 0.000000 0.000000 0.000000 0.000000 0.000000 0.000000 0.000000 0.000000 0.000000 0.000000 0.000000 0.000000 0.000000 0.000000 0.000000 0.000000 0.000000 0.000000 0.000000 0.000000 0.000000 0.000000 0.000000 0.000000 0.000000 0.000000 0.000000 0.000000 0.000000 0.000000 0.000000 0.000000 0.000000 0.000000 0.000000 0.000000 0.000000 0.000000 0.191580 -20.881201 6.514070 29.935960 -45.457116 29.071527 10.239129 0.387841 26.243118 -4.787930 -1.915829 7.020541 0.000000 0.000000 0.000000 0.000000 0.000000 0.000000 0.000000 0.000000 0.000000 0.000000 0.000000 0.000000 0.000000 0.000000 0.000000 0.000000 0.000000 0.000000 0.000000 0.000000 0.000000 0.000000 0.000000 0.000000 0.000000 0.000000 0.000000 0.000000 0.000000 0.000000 0.000000 0.000000 0.000000 0.000000 0.000000 0.000000 0.000000 0.000000 0.000000 0.000000 0.000000 0.000000
-0.000725 -0.039638 1.030026 -4.322852 0.496780 -0.845514 5.460408 -2.700017 2.392934 2.537858 1.819458 -10.246932 -10.320271 -2.712512 9.355032 -0.893751 -2.165098 -1.212660 1.138007 3.605567 -2.850485 8.762697 0.788164 5.642971 -10.785018 -1.895723 -5.982699 -0.407538 -1.559308 0.714898 3.192511 1.079287 2.445001 -0.369105 -0.215531 -1.313555 3.183624 0.757321 0.022019 5.529846 0.393437 2.519347 5.622085 -0.451233 -0.863418 -0.994779 20.482762 -1.235722 26.672687 43.718108 -26.903319 19.108566 -0.531252 -24.273652 -2.543309 0.528692 -10.505494 0.000000 0.000000 0.000000 0.000000 0.000000 0.000000 0.000000 0.000000 0.000000 0.000000 0.000000 0.000000 0.000000 0.000000 0.000000 0.000000 0.000000 0.000000 0.000000 0.000000 0.000000 0.000000 0.000000 0.000000 0.000000 0.000000 0.000000 0.000000 0.000000 0.000000 0.000000 0.000000 0.000000 0.000000 0.000000 0.000000 0.000000 0.000000 0.000000 0.000000 0.000000 0.000000 0.198697 -20.881516 6.535615 29.918376 -45.453111 29.031392 10.246141 0.405482 26.333700 -4.699583 -1.937727 7.007184 0.000000 0.000000 0.000000 0.000000 0.000000 0.000000 0.000000 0.000000 0.000000 0.000000 0.000000 0.000000 0.000000 0.000000 0.000000 0.000000 0.000000 0.000000 0.000000 0.000000 0.000000 0.000000 0.000000 0.000000 0.000000 0.000000 0.000000 0.000000 0.000000 0.000000 0.000000 0.000000 0.000000 0.000000 0.000000 0.000000 0.000000 0.000000 0.000000 0.000000 0.000000 0.000000
-0.000840 -0.039774 1.030055 -4.335765 0.488805 -0.842139 5.464668 -2.671056 2.380089 2.548081 1.808953 -10.164656 -10.317632 -2.720267 9.332547 -0.902187 -2.153859 -1.214509 1.124531 3.628698 -2.853010 8.810205 0.787344 5.627588 -10.794694 -1.933047 -5.972806 -0.406352 -1.566077 0.711092 3.216270 1.085965 2.449261 -0.406214 -0.198709 -1.310648 3.219262 0.751918 0.025026 5.579340 0.404683 2.489069 5.711116 -0.467865 -0.826229 -1.004509 20.468529 -1.251247 26.673407 43.704667 -26.880743 19.114443 -0.491956 -24.357837 -2.589982 0.461046 -10.516335 0.000000 0.000000 0.000000 0.000000 0.000000 0.000000 0.000000 0.000000 0.000000 0.000000 0.000000 0.000000 0.000000 0.000000 0.000000 0.000000 0.000000 0.000000 0.000000 0.000000 0.000000 0.000000 0.000000 0.000000 0.000000 0.000000 0.000000 0.000000 0.000000 0.000000 0.000000 0.000000 0.000000 0.000000 0.000000 0.000000 0.000000 0.000000 0.000000 0.000000 0.000000 0.000000 0.198871 -20.887464 6.549567 29.911503 -45.428768 28.989958 10.223868 0.395131 26.383826 -4.610021 -1.943611 7.014070 0.000000 0.000000 0.000000 0.000000 0.000000 0.000000 0.000000 0.000000 0.000000 0.000000 0.000000 0.000000 0.000000 0.000000 0.000000 0.000000 0.000000 0.000000 0.000000 0.000000 0.000000 0.000000 0.000000 0.000000 0.000000 0.000000 0.000000 0.000000 0.000000 0.000000 0.000000 0.000000 0.000000 0.000000 0.000000 0.000000 0.000000 0.000000 0.000000 0.000000 0.000000 0.000000
-0.001373 -0.040005 1.030091 -4.369406 0.491974 -0.834541 5.479609 -2.623290 2.349808 2.590995 1.788304 -10.067151 -10.356519 -2.750766 9.323619 -0.906028 -2.132574 -1.216775 1.104674 3.658829 -2.846932 8.913901 0.795281 5.606468 -10.792725 -1.978287 -5.962431 -0.410451 -1.581084 0.704245 3.241071 1.112768 2.450599 -0.431887 -0.196918 -1.310513 3.243161 0.760573 0.027478 5.641034 0.407175 2.468017 5.810147 -0.502961 -0.777718 -1.027307 20.458986 -1.243787 26.701850 43.693204 -26.880879 19.130936 -0.451262 -24.461203 -2.676070 0.343329 -10.547760 0.000000 0.000000 0.000000 0.000000 0.000000 0.000000 0.000000 0.000000 0.000000 0.000000 0.000000 0.000000 0.000000 0.000000 0.000000 0.000000 0.000000 0.000000 0.000000 0.000000 0.000000 0.000000 0.000000 0.000000 0.000000 0.000000 0.000000 0.000000 0.000000 0.000000 0.000000 0.000000 0.000000 0.000000 0.000000 0.000000 0.000000 0.000000 0.000000 0.000000 0.000000 0.000000 0.172766 -20.894761 6.525697 29.927492 -45.388615 28.961537 10.208247 0.386271 26.404245 -4.530134 -1.934672 7.051345 0.000000 0.000000 0.000000 0.000000 0.000000 0.000000 0.000000 0.000000 0.000000 0.000000 0.000000 0.000000 0.000000 0.000000 0.000000 0.000000 0.000000 0.000000 0.000000 0.000000 0.000000 0.000000 0.000000 0.000000 0.000000 0.000000 0.000000 0.000000 0.000000 0.000000 0.000000 0.000000 0.000000 0.000000 0.000000 0.000000 0.000000 0.000000 0.000000 0.000000 0.000000 0.000000
-0.001443 -0.039916 1.030086 -4.357436 0.484547 -0.769395 5.414443 -2.598248 2.333693 2.681402 1.753817 -10.065308 -10.408042 -2.751503 9.292682 -0.905242 -2.125726 -1.213014 1.034551 3.670676 -2.826271 9.038983 0.796489 5.617603 -10.797830 -1.962852 -6.008610 -0.412784 -1.581433 0.702450 3.224779 1.109113 2.428547 -0.457416 -0.202451 -1.324006 3.261988 0.755604 0.013333 5.740854 0.417267 2.441141 5.996602 -0.494537 -0.773719 -1.003985 20.393822 -1.248735 26.756489 43.734226 -26.944346 19.147745 -0.427531 -24.504430 -2.681675 0.210390 -10.562253 0.000000 0.000000 0.000000 0.000000 0.000000 0.000000 0.000000 0.000000 0.000000 0.000000 0.000000 0.000000 0.000000 0.000000 0.000000 0.000000 0.000000 0.000000 0.000000 0.000000 0.000000 0.000000 0.000000 0.000000 0.000000 0.000000 0.000000 0.000000 0.000000 0.000000 0.000000 0.000000 0.000000 0.000000 0.000000 0.000000 0.000000 0.000000 0.000000 0.000000 0.000000 0.000000 0.184941 -20.838725 6.512764 29.904673 -45.413513 28.952393 10.131768 0.313949 26.422430 -4.545749 -1.876497 7.102719 0.000000 0.000000 0.000000 0.000000 0.000000 0.000000 0.000000 0.000000 0.000000 0.000000 0.000000 0.000000 0.000000 0.000000 0.000000 0.000000 0.000000 0.000000 0.000000 0.000000 0.000000 0.000000 0.000000 0.000000 0.000000 0.000000 0.000000 0.000000 0.000000 0.000000 0.000000 0.000000 0.000000 0.000000 0.000000 0.000000 0.000000 0.000000 0.000000 0.000000 0.000000 0.000000
-0.001547 -0.039694 1.030061 -4.321997 0.473793 -0.735260 5.342236 -2.575474 2.314363 2.741631 1.746609 -10.101024 -10.436941 -2.770360 9.301194 -0.907555 -2.129891 -1.221825 0.965738 3.681589 -2.800250 9.100428 0.810148 5.632272 -10.794661 -1.955936 -6.062538 -0.412107 -1.590662 0.705051 3.230040 1.115078 2.410298 -0.497663 -0.212821 -1.323266 3.269830 0.765463 0.007056 5.743844 0.423268 2.453031 6.130841 -0.477894 -0.752985 -1.028285 20.370355 -1.213857 26.811311 43.721567 -26.983972 19.264717 -0.425352 -24.549220 -2.677339 0.144874 -10.591483 0.000000 0.000000 0.000000 0.000000 0.000000 0.000000 0.000000 0.000000 0.000000 0.000000 0.000000 0.000000 0.000000 0.000000 0.000000 0.000000 0.000000 0.000000 0.000000 0.000000 0.000000 0.000000 0.000000 0.000000 0.000000 0.000000 0.000000 0.000000 0.000000 0.000000 0.000000 0.000000 0.000000 0.000000 0.000000 0.000000 0.000000 0.000000 0.000000 0.000000 0.000000 0.000000 0.151096 -20.817644 6.450152 29.939202 -45.404100 28.985082 10.120823 0.279518 26.415428 -4.574477 -1.854334 7.124415 0.000000 0.000000 0.000000 0.000000 0.000000 0.000000 0.000000 0.000000 0.000000 0.000000 0.000000 0.000000 0.000000 0.000000 0.000000 0.000000 0.000000 0.000000 0.000000 0.000000 0.000000 0.000000 0.000000 0.000000 0.000000 0.000000 0.000000 0.000000 0.000000 0.000000 0.000000 0.000000 0.000000 0.000000 0.000000 0.000000 0.000000 0.000000 0.000000 0.000000 0.000000 0.000000
-0.001361 -0.039467 1.030028 -4.276532 0.454528 -0.691454 5.285792 -2.567079 2.316686 2.740492 1.746466 -10.134799 -10.439720 -2.756868 9.271369 -0.900859 -2.128625 -1.231566 0.929061 3.686991 -2.789090 9.077842 0.821607 5.646463 -10.771894 -1.919192 -6.089084 -0.407818 -1.616618 0.703285 3.215366 1.107363 2.392593 -0.473870 -0.229197 -1.321962 3.244181 0.774949 -0.008138 5.837122 0.432840 2.481211 6.267190 -0.457335 -0.717642 -1.020246 20.348290 -1.196773 26.828092 43.731745 -27.036541 19.357498 -0.463823 -24.533300 -2.573507 0.124867 -10.610507 0.000000 0.000000 0.000000 0.000000 0.000000 0.000000 0.000000 0.000000 0.000000 0.000000 0.000000 0.000000 0.000000 0.000000 0.000000 0.000000 0.000000 0.000000 0.000000 0.000000 0.000000 0.000000 0.000000 0.000000 0.000000 0.000000 0.000000 0.000000 0.000000 0.000000 0.000000 0.000000 0.000000 0.000000 0.000000 0.000000 0.000000 0.000000 0.000000 0.000000 0.000000 0.000000 0.145353 -20.785746 6.410463 29.959849 -45.418328 29.043611 10.098076 0.271111 26.403844 -4.607050 -1.829266 7.146440 0.000000 0.000000 0.000000 0.000000 0.000000 0.000000 0.000000 0.000000 0.000000 0.000000 0.000000 0.000000 0.000000 0.000000 0.000000 0.000000 0.000000 0.000000 0.000000 0.000000 0.000000 0.000000 0.000000 0.000000 0.000000 0.000000 0.000000 0.000000 0.000000 0.000000 0.000000 0.000000 0.000000 0.000000 0.000000 0.000000 0.000000 0.000000 0.000000 0.000000 0.000000 0.000000
